<svg width="39" height="39" viewBox="0 0 39 39" fill="none" xmlns="http://www.w3.org/2000/svg">
<g clip-path="url(#clip0_286_53)">
<rect width="39" height="39" rx="19.5" fill="#29333F"/>
<path d="M19.5001 0C8.67719 0 -0.0983887 8.73147 -0.0983887 19.5C-0.0983887 30.2685 8.67719 39 19.5001 39C30.323 39 39.0986 30.2685 39.0986 19.5C39.0986 8.73147 30.323 0 19.5001 0ZM25.804 19.8003L16.2497 26.7167C16.1974 26.7542 16.1356 26.7765 16.0713 26.7814C16.007 26.7862 15.9426 26.7732 15.8851 26.744C15.8277 26.7148 15.7795 26.6703 15.7458 26.6156C15.7121 26.5609 15.6943 26.498 15.6941 26.4338V12.6097C15.6939 12.5454 15.7116 12.4823 15.7453 12.4274C15.7789 12.3725 15.8271 12.3279 15.8847 12.2986C15.9422 12.2693 16.0068 12.2564 16.0712 12.2614C16.1356 12.2664 16.1974 12.289 16.2497 12.3268L25.804 19.2388C25.8491 19.2706 25.886 19.3127 25.9114 19.3615C25.9368 19.4104 25.95 19.4646 25.95 19.5196C25.95 19.5746 25.9368 19.6288 25.9114 19.6776C25.886 19.7265 25.8491 19.7686 25.804 19.8003V19.8003Z" fill="#8D9BAD"/>
</g>
<defs>
<clipPath id="clip0_286_53">
<rect width="39" height="39" rx="19.5" fill="white"/>
</clipPath>
</defs>
</svg>
