<svg width="39" height="39" viewBox="0 0 39 39" fill="none" xmlns="http://www.w3.org/2000/svg">
<g clip-path="url(#clip0_222_1438)">
<rect width="39" height="39" rx="19.5" fill="#29333F"/>
<path d="M19.5 0C8.67707 0 -0.0985107 8.73147 -0.0985107 19.5C-0.0985107 30.2685 8.67707 39 19.5 39C30.3229 39 39.0985 30.2685 39.0985 19.5C39.0985 8.73147 30.3229 0 19.5 0ZM25.8039 19.8003L16.2496 26.7167C16.1972 26.7542 16.1355 26.7765 16.0712 26.7814C16.0069 26.7862 15.9424 26.7732 15.885 26.744C15.8276 26.7148 15.7794 26.6703 15.7457 26.6156C15.712 26.5609 15.6941 26.498 15.694 26.4338V12.6097C15.6938 12.5454 15.7115 12.4823 15.7451 12.4274C15.7788 12.3725 15.827 12.3279 15.8845 12.2986C15.9421 12.2693 16.0066 12.2564 16.0711 12.2614C16.1355 12.2664 16.1973 12.289 16.2496 12.3268L25.8039 19.2388C25.849 19.2706 25.8858 19.3127 25.9112 19.3615C25.9367 19.4104 25.9499 19.4646 25.9499 19.5196C25.9499 19.5746 25.9367 19.6288 25.9112 19.6776C25.8858 19.7265 25.849 19.7686 25.8039 19.8003V19.8003Z" fill="#FF8585"/>
</g>
<defs>
<clipPath id="clip0_222_1438">
<rect width="39" height="39" rx="19.5" fill="white"/>
</clipPath>
</defs>
</svg>
