<svg width="16" height="16" viewBox="0 0 16 16" fill="none" xmlns="http://www.w3.org/2000/svg">
<path d="M8.20576 2.66675C8.64304 2.66672 9.06375 2.83402 9.38159 3.13433C9.69943 3.43464 9.89031 3.84519 9.91506 4.28176L9.9177 4.37868H12.6831C12.7832 4.37871 12.8796 4.41674 12.9527 4.48507C13.0259 4.55341 13.0703 4.64695 13.0772 4.74682C13.084 4.84668 13.0526 4.94541 12.9895 5.02305C12.9263 5.1007 12.836 5.15147 12.7369 5.16512L12.6831 5.16881H12.2638L11.5896 12.0271C11.5558 12.369 11.4016 12.6878 11.1545 12.9265C10.9074 13.1652 10.5835 13.3083 10.2406 13.3303L10.1479 13.3334H6.26364C5.91992 13.3334 5.5874 13.2112 5.3255 12.9885C5.06361 12.7659 4.88941 12.4574 4.83404 12.1182L4.82193 12.0265L4.14716 5.16881H3.7284C3.63293 5.1688 3.54069 5.13423 3.46875 5.07148C3.3968 5.00873 3.35001 4.92205 3.33702 4.82747L3.33334 4.77374C3.33334 4.67828 3.36791 4.58604 3.43066 4.51409C3.49341 4.44215 3.58009 4.39535 3.67467 4.38237L3.7284 4.37868H6.49383C6.49383 3.92465 6.67419 3.48921 6.99524 3.16816C7.31629 2.84711 7.75173 2.66675 8.20576 2.66675ZM11.47 5.16881H4.94097L5.60836 11.9491C5.62314 12.1004 5.68981 12.2419 5.79706 12.3496C5.9043 12.4574 6.04552 12.5247 6.19674 12.5401L6.26364 12.5433H10.1479C10.4639 12.5433 10.7321 12.3194 10.7932 12.0155L10.8037 11.9491L11.47 5.16881ZM8.20576 3.45687C7.97442 3.45688 7.75154 3.54388 7.58136 3.70059C7.41118 3.8573 7.30615 4.07227 7.28711 4.30283L7.28395 4.37868H9.12757C9.12757 4.1342 9.03046 3.89974 8.85758 3.72686C8.68471 3.55399 8.45024 3.45687 8.20576 3.45687Z" fill="#4B5765"/>
</svg>
