<svg width="24" height="24" viewBox="0 0 24 24" fill="none" xmlns="http://www.w3.org/2000/svg">
<circle cx="12" cy="12" r="12" fill="#8D9BAD"/>
<path d="M10 7.5C10.1326 7.5 10.2598 7.55268 10.3536 7.64645C10.4473 7.74021 10.5 7.86739 10.5 8V16C10.5 16.1326 10.4473 16.2598 10.3536 16.3536C10.2598 16.4473 10.1326 16.5 10 16.5C9.86739 16.5 9.74021 16.4473 9.64645 16.3536C9.55268 16.2598 9.5 16.1326 9.5 16V8C9.5 7.86739 9.55268 7.74021 9.64645 7.64645C9.74021 7.55268 9.86739 7.5 10 7.5ZM14 7.5C14.1326 7.5 14.2598 7.55268 14.3536 7.64645C14.4473 7.74021 14.5 7.86739 14.5 8V16C14.5 16.1326 14.4473 16.2598 14.3536 16.3536C14.2598 16.4473 14.1326 16.5 14 16.5C13.8674 16.5 13.7402 16.4473 13.6464 16.3536C13.5527 16.2598 13.5 16.1326 13.5 16V8C13.5 7.86739 13.5527 7.74021 13.6464 7.64645C13.7402 7.55268 13.8674 7.5 14 7.5Z" fill="black"/>
</svg>
