<svg width="24" height="24" viewBox="0 0 24 24" fill="none" xmlns="http://www.w3.org/2000/svg">
<path d="M17.75 3C18.612 3 19.4386 3.34241 20.0481 3.9519C20.6576 4.5614 21 5.38805 21 6.25V17.75C21 18.612 20.6576 19.4386 20.0481 20.0481C19.4386 20.6576 18.612 21 17.75 21H6.25C5.38805 21 4.5614 20.6576 3.9519 20.0481C3.34241 19.4386 3 18.612 3 17.75V6.25C3 5.38805 3.34241 4.5614 3.9519 3.9519C4.5614 3.34241 5.38805 3 6.25 3H17.75ZM7.75 7C7.55109 7 7.36032 7.07902 7.21967 7.21967C7.07902 7.36032 7 7.55109 7 7.75V16.25C7 16.4489 7.07902 16.6397 7.21967 16.7803C7.36032 16.921 7.55109 17 7.75 17C7.94891 17 8.13968 16.921 8.28033 16.7803C8.42098 16.6397 8.5 16.4489 8.5 16.25V7.75C8.5 7.55109 8.42098 7.36032 8.28033 7.21967C8.13968 7.07902 7.94891 7 7.75 7Z" fill="#737F8F"/>
</svg>
