<svg width="23" height="23" viewBox="0 0 23 23" fill="none" xmlns="http://www.w3.org/2000/svg">
<path d="M11.5 1.4375C5.94316 1.4375 1.4375 5.94316 1.4375 11.5C1.4375 17.0568 5.94316 21.5625 11.5 21.5625C17.0568 21.5625 21.5625 17.0568 21.5625 11.5C21.5625 5.94316 17.0568 1.4375 11.5 1.4375ZM14.7366 11.655L9.83115 15.224C9.80426 15.2433 9.77256 15.2549 9.73954 15.2574C9.70651 15.2598 9.67344 15.2532 9.64396 15.2381C9.61448 15.223 9.58973 15.2001 9.57243 15.1718C9.55513 15.1436 9.54595 15.1111 9.5459 15.078V7.94443C9.54579 7.91125 9.55487 7.87869 9.57214 7.85035C9.5894 7.82201 9.61418 7.79901 9.64372 7.78389C9.67326 7.76877 9.70641 7.76213 9.73949 7.7647C9.77257 7.76726 9.8043 7.77894 9.83115 7.79844L14.7366 11.3652C14.7598 11.3816 14.7787 11.4033 14.7917 11.4285C14.8048 11.4538 14.8116 11.4817 14.8116 11.5101C14.8116 11.5385 14.8048 11.5665 14.7917 11.5917C14.7787 11.6169 14.7598 11.6386 14.7366 11.655Z" fill="#FF8585"/>
</svg>
