<svg width="75" height="75" viewBox="0 0 75 75" fill="none" xmlns="http://www.w3.org/2000/svg">
<path d="M37.3177 62.4782C51.7087 62.4782 63.375 52.0399 63.375 39.1636C63.375 26.2873 51.7087 15.849 37.3177 15.849C22.9266 15.849 11.2604 26.2873 11.2604 39.1636C11.2604 52.0399 22.9266 62.4782 37.3177 62.4782Z" fill="#EA5A47" stroke="#EA5A47" stroke-width="1.8" stroke-miterlimit="10" stroke-linecap="round" stroke-linejoin="round"/>
<path d="M63.05 39.1635C63.05 52.0437 51.7063 62.4781 37.3177 62.4781C55.4428 58.2031 70.6094 28.1739 37.3177 15.85C42.6146 15.85 47.5427 17.2635 51.6563 19.6937C58.7157 23.8635 63.05 31.026 63.05 39.1635V39.1635Z" fill="#D22F27" stroke="#D22F27" stroke-width="1.8" stroke-miterlimit="10" stroke-linejoin="round"/>
<path d="M48.2552 16.5094C47.8542 17.949 47.2198 19.6667 45.7177 20.9209C39.5834 26.0417 31.5105 24.2584 27.9344 20.9209C26.5177 19.5834 25.8094 17.949 25.4094 16.5094C24.7459 14.1323 25.0323 12.1657 25.0323 12.1657C25.0323 12.1657 27.4094 11.824 30.0719 12.7719C31.0521 13.1166 31.9733 13.6102 32.8032 14.2354C33.3063 10.7261 35.649 8.38337 36.5063 7.6292L36.8261 7.3667L37.1459 7.6292C38.0032 8.38337 40.3459 10.7261 40.849 14.2354C41.6789 13.6103 42.6001 13.1167 43.5802 12.7719C46.2438 11.824 48.6209 12.1667 48.6209 12.1667C48.6209 12.1667 48.9177 14.1323 48.2542 16.5094H48.2552Z" fill="#B1CC33"/>
<path d="M52.4031 20.1521C59.0437 24.3781 63.375 31.3188 63.375 39.1646C63.375 52.0396 51.7083 62.4781 37.3177 62.4781C22.927 62.4781 11.2604 52.0417 11.2604 39.1636C11.2604 31.4823 15.4125 24.6688 21.8187 20.4208" stroke="black" stroke-width="2" stroke-miterlimit="10" stroke-linecap="round" stroke-linejoin="round"/>
<path d="M48.2551 16.5094C47.8541 17.949 47.2197 19.6667 45.7176 20.9209C39.5832 26.0417 31.5103 24.2584 27.9343 20.9209C26.5176 19.5834 25.8093 17.949 25.4093 16.5094C24.7457 14.1323 25.0322 12.1657 25.0322 12.1657C25.0322 12.1657 27.4093 11.824 30.0718 12.7719C31.052 13.1166 31.9732 13.6102 32.803 14.2354C33.3062 10.7261 35.6489 8.38337 36.5062 7.6292L36.826 7.3667L37.1457 7.6292C38.003 8.38337 40.3457 10.7261 40.8489 14.2354C41.6788 13.6103 42.6 13.1167 43.5801 12.7719C46.2437 11.824 48.6207 12.1667 48.6207 12.1667C48.6207 12.1667 48.9176 14.1323 48.2541 16.5094H48.2551Z" stroke="black" stroke-width="2" stroke-miterlimit="10" stroke-linejoin="round"/>
</svg>
